name D:\school\WTK\thesis\model\3dpredictsim\Results\MidTarsalJoint\Fal_s1_bCst_PF_Natali2010_ls150_MT_k250_MTP_T5_ig23.mot
datacolumns 128
datarows 4
range 0.00000000 0.03446186
endheader
time	pelvis_tilt	pelvis_list	pelvis_rotation	pelvis_tx	pelvis_ty	pelvis_tz	hip_flexion_l	hip_adduction_l	hip_rotation_l	hip_flexion_r	hip_adduction_r	hip_rotation_r	knee_angle_l	knee_angle_r	ankle_angle_l	ankle_angle_r	subtalar_angle_l	subtalar_angle_r	mtj_angle_l	mtj_angle_r	mtp_angle_l	mtp_angle_r	lumbar_extension	lumbar_bending	lumbar_rotation	arm_flex_l	arm_add_l	arm_rot_l	arm_flex_r	arm_add_r	arm_rot_r	elbow_flex_l	elbow_flex_r	pro_sup_l	pro_sup_r	glut_med1_l/activation	glut_med2_l/activation	glut_med3_l/activation	glut_min1_l/activation	glut_min2_l/activation	glut_min3_l/activation	semimem_l/activation	semiten_l/activation	bifemlh_l/activation	bifemsh_l/activation	sar_l/activation	add_long_l/activation	add_brev_l/activation	add_mag1_l/activation	add_mag2_l/activation	add_mag3_l/activation	tfl_l/activation	pect_l/activation	grac_l/activation	glut_max1_l/activation	glut_max2_l/activation	glut_max3_l/activation	iliacus_l/activation	psoas_l/activation	quad_fem_l/activation	gem_l/activation	peri_l/activation	rect_fem_l/activation	vas_med_l/activation	vas_int_l/activation	vas_lat_l/activation	med_gas_l/activation	lat_gas_l/activation	soleus_l/activation	tib_post_l/activation	flex_dig_l/activation	flex_hal_l/activation	tib_ant_l/activation	per_brev_l/activation	per_long_l/activation	per_tert_l/activation	ext_dig_l/activation	ext_hal_l/activation	ercspn_l/activation	intobl_l/activation	extobl_l/activation	glut_med1_r/activation	glut_med2_r/activation	glut_med3_r/activation	glut_min1_r/activation	glut_min2_r/activation	glut_min3_r/activation	semimem_r/activation	semiten_r/activation	bifemlh_r/activation	bifemsh_r/activation	sar_r/activation	add_long_r/activation	add_brev_r/activation	add_mag1_r/activation	add_mag2_r/activation	add_mag3_r/activation	tfl_r/activation	pect_r/activation	grac_r/activation	glut_max1_r/activation	glut_max2_r/activation	glut_max3_r/activation	iliacus_r/activation	psoas_r/activation	quad_fem_r/activation	gem_r/activation	peri_r/activation	rect_fem_r/activation	vas_med_r/activation	vas_int_r/activation	vas_lat_r/activation	med_gas_r/activation	lat_gas_r/activation	soleus_r/activation	tib_post_r/activation	flex_dig_r/activation	flex_hal_r/activation	tib_ant_r/activation	per_brev_r/activation	per_long_r/activation	per_tert_r/activation	ext_dig_r/activation	ext_hal_r/activation	ercspn_r/activation	intobl_r/activation	extobl_r/activation	
          0.00000000	         -2.93000586	         -2.16855106	          5.47161331	          0.00000000	          0.92021961	         -0.00156477	        -16.21417820	         -1.09153486	          8.04365698	         29.13947412	          3.49903854	         -2.15309993	        -10.06436430	        -11.30874497	         -3.60519549	          4.59097889	         11.13939727	         -2.40820001	          4.57351597	         -0.18323079	         12.98256869	          0.79680121	         -2.12525265	          0.56112391	         -1.92611612	          5.04735747	        -13.46507448	         17.44080649	         -3.90735738	        -13.45114467	         10.18786497	         35.11296168	         13.75887161	         86.51662706	         86.51662706	          0.31447063	          0.09908365	          0.06144355	          0.33403094	          0.20336560	          0.10075901	          0.05000078	          0.05000016	          0.05000011	          0.05659020	          0.10464131	          0.05014206	          0.05000028	          0.05000025	          0.05000074	          0.05000062	          0.28678492	          0.05000206	          0.05000026	          0.05000154	          0.05000095	          0.05000060	          0.36301825	          0.55742589	          0.05000005	          0.05000019	          0.05000009	          0.21019460	          0.05239670	          0.05000223	          0.05000203	          0.26447329	          0.36036554	          0.32252370	          0.23748268	          0.21980476	          0.29664686	          0.05000000	          0.06745390	          0.14829773	          0.05000008	          0.05000001	          0.05000007	          0.05000000	          0.05000001	          0.05000138	          0.05957274	          0.05957269	          0.05000014	          0.05957271	          0.05957269	          0.05957256	          0.07862454	          0.05957305	          0.19872525	          0.05000021	          0.05000018	          0.13846139	          0.23682335	          0.12896121	          0.18403855	          0.08870360	          0.05000079	          0.05001689	          0.16599409	          0.05957081	          0.05640608	          0.09100233	          0.05000007	          0.05000006	          0.29262255	          0.05000188	          0.05365959	          0.05000004	          0.08853799	          0.09075689	          0.07247356	          0.05957273	          0.05957273	          0.05957273	          0.05000009	          0.05000036	          0.05000037	          0.46677798	          0.22507525	          0.17701306	          0.07689492	          0.46798225	          0.06533265	          0.05000016	          0.11355753	          0.09685354	
          0.01148729	         -2.92895128	         -2.25493802	          5.70584163	          0.01753818	          0.91943691	         -0.00135688	        -16.01049011	         -1.37515860	          7.85660972	         28.42408599	          3.95609378	         -1.95173171	        -12.06628275	        -11.29688854	         -4.28738587	          3.95368441	         12.27688117	         -2.81236337	          3.44918227	         -0.23917180	         14.96191508	          0.78133518	         -1.92306919	          0.77194915	         -2.01178921	          4.66226038	        -13.48969635	         17.68039313	         -4.83946032	        -13.45244267	          9.84991452	         36.35472421	         13.47840287	         86.51662706	         86.51662706	          0.26393840	          0.08316193	          0.05157040	          0.28035562	          0.17068684	          0.08456809	          0.05000154	          0.05000022	          0.05000029	          0.05000025	          0.08782671	          0.14097707	          0.13150119	          0.07097752	          0.05000363	          0.05000103	          0.24070154	          0.10184628	          0.05957954	          0.05000113	          0.05000059	          0.05000051	          0.30468492	          0.49946179	          0.07072428	          0.05957549	          0.05957283	          0.17641846	          0.11602612	          0.14302834	          0.13888831	          0.22197510	          0.30245843	          0.27069739	          0.19932165	          0.18448450	          0.24897883	          0.05000011	          0.05661476	          0.12446781	          0.05000012	          0.05000010	          0.05000017	          0.05472990	          0.07464567	          0.07097816	          0.05000001	          0.05000002	          0.05000769	          0.05000003	          0.05000004	          0.05000005	          0.06599038	          0.05000029	          0.16679214	          0.05003659	          0.06784225	          0.11621265	          0.29072328	          0.37713545	          0.22181587	          0.07444988	          0.05000004	          0.08457011	          0.14052736	          0.05000019	          0.06523558	          0.14779226	          0.06601855	          0.07097787	          0.59940549	          0.26870114	          0.24215859	          0.08183861	          0.21668937	          0.21900297	          0.18216984	          0.05000001	          0.05000003	          0.05000000	          0.05681678	          0.05000214	          0.05957133	          0.53648800	          0.18890797	          0.20506764	          0.23347917	          0.48865852	          0.17827195	          0.05000000	          0.09530998	          0.08129016	
          0.02297458	         -2.92326052	         -2.34688215	          5.90871540	          0.03541011	          0.91858162	         -0.00118881	        -15.75633086	         -1.65518975	          7.65628375	         27.54761094	          4.29728932	         -1.67131746	        -14.13881884	        -11.56136319	         -5.08721061	          3.43735180	         13.35958410	         -3.24297660	          2.15201950	         -0.39595914	         16.99651293	          0.77407614	         -1.69830166	          0.99689089	         -2.08470655	          4.18265931	        -13.51311257	         17.82100938	         -5.80002791	        -13.46751767	          9.58213982	         37.61196488	         13.23741202	         86.51662706	         86.51662706	          0.38450248	          0.06979866	          0.05000017	          0.23530550	          0.14325923	          0.07097887	          0.05000160	          0.05000027	          0.05000019	          0.05000010	          0.07371399	          0.13705586	          0.19419548	          0.05957300	          0.05956925	          0.05000985	          0.20202339	          0.08548120	          0.05000693	          0.05001825	          0.05037380	          0.05957105	          0.25572520	          0.47404468	          0.05957179	          0.05000264	          0.05000011	          0.14806980	          0.09738229	          0.12004528	          0.11657045	          0.18630593	          0.25385641	          0.22719905	          0.16729268	          0.15483976	          0.20897048	          0.09471075	          0.09804353	          0.16752285	          0.05000011	          0.11941258	          0.05000043	          0.06049248	          0.06265086	          0.05957286	          0.29270255	          0.28504658	          0.05000011	          0.05000029	          0.05000027	          0.31994490	          0.09146494	          0.09012696	          0.15364595	          0.05000003	          0.05694075	          0.09753847	          0.24400703	          0.31653364	          0.18617254	          0.11597765	          0.05000038	          0.07098092	          0.11794632	          0.05000064	          0.05503716	          0.12404361	          0.05541009	          0.05957247	          0.50308708	          0.22552361	          0.22990390	          0.06868797	          0.18186966	          0.18381149	          0.15289705	          0.05590255	          0.05536187	          0.05876413	          0.05000002	          0.05000013	          0.05000013	          0.52282183	          0.34510808	          0.17211539	          0.19596157	          0.56558482	          0.28971572	          0.05000000	          0.10075813	          0.06822766	
          0.03446186	         -2.91468411	         -2.44492824	          6.07653579	          0.05339170	          0.91766972	         -0.00101512	        -15.40418109	         -1.92761242	          7.46125159	         26.55257815	          4.57683985	         -1.38434133	        -16.35519427	        -11.75604689	         -5.98013402	          2.95443779	         14.37247977	         -3.69169027	          0.77174748	         -0.30978343	         18.88589808	          0.79531929	         -1.47329098	          1.23299103	         -2.14658434	          3.64678004	        -13.54114046	         17.88389177	         -6.74000649	        -13.49059655	          9.39599068	         38.86550261	         13.00783436	         86.51662706	         86.51662706	          0.32271690	          0.05858274	          0.05000001	          0.24735046	          0.12023897	          0.05957332	          0.05000078	          0.05000006	          0.05000006	          0.05000008	          0.06186930	          0.13189355	          0.16299049	          0.05000043	          0.05000056	          0.05000045	          0.16956038	          0.07174580	          0.05000015	          0.05000039	          0.05000023	          0.05000014	          0.21463276	          0.41483961	          0.05000002	          0.05000015	          0.05000009	          0.12427648	          0.10075722	          0.10075746	          0.09784048	          0.15636845	          0.21306425	          0.19069045	          0.14041045	          0.12995862	          0.17539107	          0.18567712	          0.14447406	          0.14060374	          0.23108290	          0.20106188	          0.05000129	          0.08788251	          0.05258350	          0.05000011	          0.39436358	          0.38669313	          0.31771252	          0.17007551	          0.27990022	          0.26853339	          0.07676751	          0.10148974	          0.12895663	          0.07097837	          0.05000043	          0.08186504	          0.20479757	          0.26566997	          0.15625964	          0.15650883	          0.05000016	          0.05957519	          0.09899427	          0.22520424	          0.16633433	          0.14133184	          0.05000003	          0.05000004	          0.42224607	          0.18928427	          0.19296080	          0.05765052	          0.15917834	          0.18444322	          0.12832871	          0.05000004	          0.05000006	          0.05000001	          0.05000001	          0.05000009	          0.05000010	          0.63061600	          0.28965276	          0.14865606	          0.54466492	          0.55456757	          0.24316151	          0.07809097	          0.08456732	          0.05726417	
